<?xml version="1.0" encoding="utf-8"?>
<!-- Generator: Adobe Illustrator 16.0.0, SVG Export Plug-In . SVG Version: 6.00 Build 0)  -->
<!DOCTYPE svg PUBLIC "-//W3C//DTD SVG 1.1//EN" "http://www.w3.org/Graphics/SVG/1.1/DTD/svg11.dtd">
<svg version="1.1" id="Layer_1" xmlns="http://www.w3.org/2000/svg" xmlns:xlink="http://www.w3.org/1999/xlink" x="0px" y="0px"
	 width="171px" height="57px" viewBox="0 0 171 57" enable-background="new 0 0 171 57" xml:space="preserve">
<g>
	<path fill-rule="evenodd" clip-rule="evenodd" fill="#E2E2E2" d="M171.035,30.738l-0.018,0.003l-0.021-0.004
		c0.002-1.332,0.003-2.664,0.005-3.996c0.013-0.006,0.022-0.006,0.034,0C171.035,28.073,171.035,29.405,171.035,30.738z"/>
	<path fill-rule="evenodd" clip-rule="evenodd" fill="#E2E2E2" d="M36.98,0.406c-0.001,0.012-0.001,0.026-0.001,0.039
		c-0.439,0.001-0.877,0.001-1.316,0.002c0-0.014,0-0.027-0.001-0.041C36.102,0.406,36.54,0.406,36.98,0.406z"/>
	<path fill-rule="evenodd" clip-rule="evenodd" fill="#F7C326" d="M35.663,0.447c0.439-0.001,0.877-0.001,1.316-0.002
		c2.966,0.117,5.8,0.783,8.43,2.139c5.934,3.061,9.604,7.834,10.964,14.312c0.264,1.259,0.375,2.538,0.364,3.822
		c-0.037,4.31-1.319,8.223-3.838,11.752c-1.042,1.46-2.01,2.972-3.019,4.455c-3.865,5.68-7.732,11.357-11.6,17.035
		c-0.648,0.952-1.297,1.902-1.947,2.854c-0.03,0.045-0.063,0.088-0.136,0.186c0-0.144,0-0.228,0-0.311
		c0-5.167-0.001-10.335,0.006-15.501c0-0.23-0.054-0.285-0.291-0.292c-4.18-0.104-8.082-1.127-11.551-3.501
		c-3.354-2.296-5.65-5.4-7.056-9.16c-0.733-1.959-1.155-3.984-1.286-6.069c-0.263-4.195,0.521-8.174,2.587-11.867
		c2.568-4.59,6.451-7.572,11.552-9.022c1.526-0.434,3.088-0.686,4.676-0.782C35.111,0.479,35.387,0.463,35.663,0.447z"/>
	<path fill-rule="evenodd" clip-rule="evenodd" fill="#E2E2E2" d="M96.841,45.711c-1.114,0-2.23-0.008-3.346,0.005
		c-0.232,0.002-0.286-0.097-0.308-0.293c-0.071-0.68-0.158-1.36-0.234-2.041c-0.071-0.657-0.134-1.314-0.205-1.974
		c-0.011-0.134-0.032-0.268-0.048-0.403c-0.014-0.138-0.121-0.106-0.202-0.106c-0.448-0.003-0.896-0.002-1.345-0.002
		c-1.235,0-2.473,0.003-3.709-0.002c-0.17-0.001-0.256,0.018-0.274,0.225c-0.062,0.682-0.155,1.359-0.229,2.041
		c-0.087,0.76-0.166,1.52-0.25,2.28c-0.021,0.185-0.092,0.278-0.321,0.276c-2.229-0.011-4.46-0.006-6.689-0.007
		c-0.277,0-0.285-0.021-0.238-0.29c0.159-0.911,0.311-1.822,0.464-2.733c0.143-0.848,0.288-1.695,0.426-2.544
		c0.155-0.952,0.299-1.904,0.456-2.855c0.166-1.014,0.345-2.026,0.511-3.039c0.159-0.967,0.308-1.936,0.466-2.902
		c0.1-0.613,0.206-1.226,0.308-1.838c0.142-0.856,0.281-1.713,0.423-2.569c0.167-1.006,0.338-2.012,0.504-3.018
		c0.16-0.982,0.312-1.966,0.475-2.948c0.167-1.006,0.348-2.009,0.515-3.015c0.158-0.95,0.305-1.903,0.461-2.854
		c0.135-0.826,0.276-1.65,0.415-2.475c0.041-0.244,0.088-0.486,0.117-0.731c0.015-0.134,0.075-0.185,0.204-0.177
		c0.04,0.001,0.082,0,0.122,0c3.085,0,6.168,0.001,9.253-0.005c0.229,0,0.313,0.054,0.35,0.298c0.171,1.11,0.381,2.213,0.564,3.322
		c0.19,1.146,0.361,2.297,0.549,3.443c0.15,0.912,0.317,1.821,0.468,2.733c0.144,0.872,0.271,1.747,0.412,2.62
		c0.098,0.606,0.206,1.21,0.307,1.814c0.142,0.857,0.28,1.713,0.424,2.568c0.173,1.021,0.351,2.041,0.519,3.063
		c0.158,0.968,0.302,1.938,0.46,2.903c0.184,1.101,0.379,2.198,0.562,3.299c0.145,0.855,0.276,1.712,0.416,2.57
		c0.099,0.604,0.2,1.209,0.302,1.815c0.144,0.854,0.286,1.712,0.426,2.568c0.042,0.244,0.046,0.497,0.116,0.73
		c0.073,0.249-0.045,0.248-0.225,0.248C99.086,45.709,97.963,45.711,96.841,45.711z M89.955,16.103
		c-0.078,0.261-0.078,0.485-0.104,0.706c-0.06,0.514-0.119,1.027-0.177,1.542c-0.055,0.507-0.105,1.015-0.16,1.522
		c-0.074,0.681-0.155,1.361-0.231,2.042c-0.054,0.507-0.104,1.015-0.161,1.521c-0.073,0.665-0.155,1.329-0.228,1.994
		c-0.058,0.53-0.081,1.066-0.164,1.593c-0.097,0.624-0.143,1.251-0.222,1.875c-0.103,0.807-0.161,1.618-0.257,2.425
		c-0.123,1.053-0.252,2.104-0.347,3.16c-0.018,0.196,0.04,0.204,0.196,0.203c1.23-0.005,2.459-0.003,3.688-0.003
		c0.039,0,0.08,0,0.12-0.001c0.07-0.002,0.117-0.039,0.093-0.105c-0.054-0.141-0.026-0.287-0.043-0.43
		c-0.08-0.68-0.159-1.36-0.233-2.042c-0.058-0.507-0.105-1.015-0.159-1.521c-0.059-0.523-0.125-1.044-0.184-1.566
		c-0.056-0.507-0.105-1.014-0.161-1.521c-0.075-0.672-0.155-1.345-0.229-2.018c-0.057-0.499-0.105-0.999-0.16-1.498
		c-0.076-0.665-0.157-1.329-0.23-1.993c-0.072-0.658-0.113-1.319-0.209-1.974c-0.096-0.663-0.141-1.33-0.229-1.993
		C90.083,17.397,90.028,16.772,89.955,16.103z"/>
	<path fill-rule="evenodd" clip-rule="evenodd" fill="#E2E2E2" d="M123.714,28.726c0-5.561,0-11.121,0-16.682
		c0-0.323,0.001-0.323,0.33-0.323c5.314,0,10.628,0,15.943,0c0.328,0,0.328,0,0.328,0.323c0,1.885-0.003,3.771,0.006,5.657
		c0,0.218-0.053,0.283-0.282,0.283c-2.629-0.009-5.258-0.003-7.887-0.01c-0.217,0-0.291,0.047-0.29,0.276
		c0.009,2.359,0.009,4.718,0,7.077c-0.001,0.219,0.069,0.265,0.278,0.263c1.775-0.007,3.548,0,5.323-0.009
		c0.219-0.001,0.271,0.062,0.27,0.271c-0.009,1.91-0.009,3.82,0.001,5.729c0,0.215-0.061,0.27-0.273,0.269
		c-1.775-0.009-3.549-0.001-5.323-0.01c-0.215-0.001-0.276,0.052-0.274,0.267c0.008,2.184,0.01,4.366-0.002,6.549
		c-0.001,0.235,0.084,0.271,0.295,0.271c2.611-0.006,5.225-0.004,7.838-0.003c0.321,0,0.321,0,0.321,0.328
		c0,2.055-0.003,4.108,0.006,6.163c0,0.221-0.042,0.301-0.288,0.301c-5.348-0.007-10.695-0.007-16.042-0.001
		c-0.228,0.001-0.282-0.066-0.282-0.283C123.715,39.863,123.714,34.295,123.714,28.726z"/>
	<path fill-rule="evenodd" clip-rule="evenodd" fill="#E2E2E2" d="M106.264,34.061c0.976,0,1.952,0.007,2.93-0.006
		c0.236-0.003,0.327,0.042,0.314,0.299c-0.023,0.489-0.03,0.981-0.001,1.468c0.063,1.009,0.19,2.007,0.685,2.917
		c0.258,0.476,0.597,0.897,1.123,1.088c0.754,0.271,1.442,0.083,2.047-0.403c0.983-0.791,1.41-1.843,1.356-3.068
		c-0.042-0.909-0.41-1.716-0.983-2.434c-0.685-0.855-1.537-1.511-2.506-2.015c-0.909-0.474-1.876-0.834-2.72-1.433
		c-1.431-1.013-2.554-2.28-3.411-3.79c-0.568-1.006-0.988-2.065-1.274-3.181c-0.317-1.227-0.446-2.472-0.368-3.73
		c0.081-1.349,0.38-2.654,1.017-3.867c1.023-1.943,2.598-3.216,4.739-3.811c0.737-0.206,1.485-0.292,2.249-0.337
		c1.415-0.083,2.799,0.05,4.141,0.501c1.251,0.421,2.339,1.112,3.221,2.087c1.008,1.115,1.635,2.432,2.003,3.874
		c0.319,1.258,0.385,2.54,0.351,3.831c-0.003,0.173-0.1,0.167-0.222,0.167c-0.74-0.002-1.48-0.001-2.221-0.001
		c-1.271,0-2.539-0.003-3.809,0.004c-0.191,0.002-0.254-0.048-0.249-0.242c0.021-0.776,0.022-1.551-0.19-2.31
		c-0.185-0.662-0.466-1.269-1.027-1.705c-0.678-0.528-1.724-0.482-2.472,0.065c-1.318,0.963-1.466,2.62-0.648,3.925
		c0.494,0.792,1.187,1.382,1.954,1.909c1.326,0.91,2.723,1.712,4.054,2.613c0.788,0.536,1.553,1.102,2.232,1.771
		c0.875,0.857,1.481,1.876,1.915,3.004c0.348,0.909,0.567,1.853,0.669,2.813c0.095,0.897,0.087,1.803,0.021,2.708
		c-0.086,1.197-0.349,2.352-0.76,3.475c-0.545,1.485-1.366,2.801-2.576,3.849c-1.03,0.893-2.242,1.43-3.603,1.608
		c-0.809,0.106-1.617,0.055-2.424-0.033c-0.346-0.036-0.695-0.02-1.046-0.05c-1.616-0.141-3.143-0.544-4.499-1.454
		c-0.907-0.608-1.6-1.409-2.13-2.359c-0.491-0.879-0.792-1.822-0.977-2.798c-0.134-0.704-0.214-1.417-0.226-2.139
		c-0.006-0.416-0.065-0.836-0.024-1.247c0.043-0.438,0.014-0.879,0.059-1.316c0.02-0.195,0.1-0.257,0.306-0.254
		C104.277,34.067,105.27,34.061,106.264,34.061z"/>
	<path fill-rule="evenodd" clip-rule="evenodd" fill="#E2E2E2" d="M62.767,28.713c0-5.56,0-11.121,0-16.681
		c0-0.311,0-0.311,0.316-0.311c5.323,0,10.646,0,15.969,0c0.318,0,0.318,0,0.318,0.31c0,1.885-0.005,3.771,0.005,5.656
		c0.001,0.228-0.056,0.297-0.294,0.296c-2.621-0.009-5.242-0.002-7.862-0.01c-0.229-0.001-0.304,0.049-0.303,0.287
		c0.009,2.352,0.008,4.703,0,7.054c0,0.226,0.068,0.278,0.288,0.277c1.766-0.008,3.532,0,5.298-0.01
		c0.225-0.001,0.286,0.06,0.285,0.282c-0.008,1.901-0.008,3.802,0,5.704c0.001,0.221-0.057,0.284-0.284,0.283
		c-1.758-0.011-3.516-0.001-5.274-0.012c-0.241-0.001-0.314,0.05-0.313,0.302c0.008,4.413,0.006,8.826,0.006,13.24
		c0,0.329,0,0.33-0.321,0.33c-2.516,0-5.03-0.004-7.545,0.005c-0.239,0.001-0.293-0.07-0.293-0.297
		C62.768,39.852,62.767,34.282,62.767,28.713z"/>
	<path fill-rule="evenodd" clip-rule="evenodd" fill="#E2E2E2" d="M142.856,28.707c0-5.552,0-11.104,0-16.656
		c0-0.33,0-0.33,0.322-0.33c2.498,0,4.997,0.003,7.494-0.005c0.238-0.001,0.296,0.065,0.295,0.294
		c-0.006,8.85-0.005,17.699-0.004,26.548c0,0.408-0.045,0.364,0.362,0.364c2.522,0.001,5.045,0,7.567,0.001
		c0.324,0,0.324,0,0.324,0.305c0,2.062-0.006,4.125,0.006,6.187c0.001,0.251-0.074,0.301-0.314,0.3
		c-5.249-0.006-10.499-0.006-15.748,0.001c-0.245,0-0.312-0.058-0.312-0.304C142.858,39.844,142.856,34.275,142.856,28.707z"/>
	<path fill-rule="evenodd" clip-rule="evenodd" fill="#F7C326" d="M171.001,26.741c-0.002,1.332-0.003,2.664-0.005,3.996
		c-0.236,0.333-0.559,0.408-0.965,0.402c-1.529-0.023-3.059-0.011-4.588-0.009c-0.358,0-0.316-0.045-0.317,0.301
		c-0.001,1.604,0,3.209,0,4.813c0,0.315-0.342,0.648-0.665,0.649c-1.163,0-2.328,0-3.49,0c-0.322-0.001-0.661-0.335-0.662-0.653
		c0-1.62-0.004-3.241,0.005-4.861c0-0.201-0.058-0.254-0.259-0.254c-1.645,0.009-3.288,0.005-4.931,0.005
		c-0.37,0-0.676-0.294-0.676-0.652c-0.001-1.164-0.001-2.327,0-3.49c0-0.328,0.313-0.638,0.642-0.638
		c1.651,0,3.303-0.004,4.954,0.005c0.218,0.001,0.271-0.059,0.27-0.269c-0.009-1.611-0.005-3.224-0.005-4.836
		c0-0.379,0.298-0.678,0.675-0.678c1.17,0,2.343,0,3.515,0c0.31,0,0.628,0.316,0.628,0.622c0,1.637,0.004,3.272-0.005,4.909
		c0,0.2,0.053,0.253,0.254,0.252c1.564-0.008,3.126,0.011,4.688-0.015C170.466,26.333,170.772,26.417,171.001,26.741z"/>
	<path fill-rule="evenodd" clip-rule="evenodd" fill="#F7C326" d="M-0.045,6.688c-0.012-1.55,0.392-2.93,1.44-4.081
		C2.289,1.625,3.419,1.036,4.718,0.77c1.975-0.403,3.839-0.126,5.516,1.019c1.391,0.949,2.142,2.294,2.329,3.942
		c0.131,1.151,0.076,2.292-0.369,3.382c-0.689,1.69-1.965,2.769-3.707,3.292c-2.171,0.653-4.252,0.432-6.147-0.846
		C0.943,10.62,0.208,9.266,0.004,7.619C-0.036,7.299-0.035,6.979-0.045,6.688z"/>
	<path display="none" fill-rule="evenodd" clip-rule="evenodd" fill="#FEFEFE" d="M89.955,16.103
		c0.073,0.669,0.128,1.295,0.21,1.917c0.088,0.664,0.133,1.331,0.229,1.993c0.096,0.655,0.137,1.316,0.209,1.974
		c0.073,0.665,0.154,1.329,0.23,1.993c0.055,0.5,0.104,0.999,0.16,1.498c0.074,0.673,0.154,1.345,0.229,2.018
		c0.056,0.508,0.105,1.015,0.161,1.521c0.059,0.522,0.125,1.043,0.184,1.566c0.054,0.507,0.102,1.015,0.159,1.521
		c0.074,0.682,0.153,1.362,0.233,2.042c0.017,0.143-0.011,0.289,0.043,0.43c0.024,0.066-0.022,0.104-0.093,0.105
		c-0.04,0.001-0.081,0.001-0.12,0.001c-1.229,0-2.458-0.002-3.688,0.003c-0.156,0.001-0.214-0.007-0.196-0.203
		c0.095-1.056,0.224-2.107,0.347-3.16c0.096-0.808,0.154-1.618,0.257-2.425c0.079-0.624,0.125-1.251,0.222-1.875
		c0.083-0.526,0.106-1.063,0.164-1.593c0.072-0.666,0.154-1.33,0.228-1.994c0.057-0.507,0.107-1.015,0.161-1.521
		c0.076-0.681,0.157-1.361,0.231-2.042c0.055-0.507,0.105-1.015,0.16-1.522c0.058-0.515,0.117-1.028,0.177-1.542
		C89.877,16.587,89.877,16.363,89.955,16.103z"/>
</g>
</svg>
